<svg width="55" height="53" viewBox="0 0 55 53" fill="none" xmlns="http://www.w3.org/2000/svg">
<path d="M54.1654 26.3387C54.1031 21.2571 52.5897 16.299 49.8037 12.0486C47.0177 7.79811 43.0754 4.43221 38.4407 2.34731C33.8057 0.262407 28.6717 -0.454659 23.6431 0.280508C18.6145 1.01571 13.9006 3.17251 10.0567 6.49701C6.21281 9.82147 3.39891 14.1751 1.94641 19.0452C0.493946 23.9154 0.463345 29.0991 1.85828 33.9861C3.25321 38.8731 6.01555 43.2594 9.81998 46.6291C13.6244 49.9987 18.3125 52.2111 23.3321 53.0054V34.1054H16.6654V26.3387H23.3321V20.4387C23.1777 19.0669 23.3264 17.6779 23.7677 16.3698C24.2091 15.0616 24.9321 13.8663 25.8857 12.8681C26.8394 11.8699 28.0004 11.0932 29.2871 10.5929C30.5737 10.0925 31.9547 9.88057 33.3321 9.97217C35.3314 9.99954 37.3261 10.1778 39.2987 10.5055V17.1722H35.9654C35.3907 17.0997 34.8067 17.1573 34.2574 17.3407C33.7077 17.5241 33.2064 17.8287 32.7904 18.2319C32.3744 18.6351 32.0544 19.1266 31.8541 19.6701C31.6534 20.2137 31.5777 20.7954 31.6321 21.3721V26.4054H39.0321L37.8321 34.1721H31.6654V52.8387C37.9651 51.8424 43.6991 48.6211 47.8271 43.7591C51.9551 38.8971 54.2037 32.7167 54.1654 26.3387Z" fill="white"/>
</svg>
