<svg width="72" height="53" viewBox="0 0 72 53" fill="none" xmlns="http://www.w3.org/2000/svg">
<path d="M71.1659 7.24019C71.1659 1.28849 64.3354 -2.10889 59.5524 1.45786L55.0287 4.8354V4.84532L35.6659 19.2916L16.3031 4.8354L11.7895 1.46702C6.99636 -2.09973 0.165894 1.29841 0.165894 7.24935V48.1842C0.165894 50.8469 2.33254 53.0029 5.0093 53.0029H16.3031V25.7102L35.6659 40.1565L55.0287 25.7102V25.7003L55.0511 25.6835L55.0287 25.7102V53.0029H66.3225C68.9985 53.0029 71.1659 50.8469 71.1659 48.1842V13.6687L71.1365 13.6802L71.1659 13.6588V7.24019Z" fill="white"/>
<path d="M5.0093 53.0029H16.3031V25.7102L0.165894 13.6687V48.185C0.165894 50.8469 2.33254 53.0029 5.0093 53.0029Z" fill="white"/>
<path d="M55.0287 53.0029H66.3225C68.9985 53.0029 71.1659 50.8469 71.1659 48.1842V13.6687L55.0287 25.7102V53.0029Z" fill="white"/>
<path d="M55.0287 4.8354V25.7003L71.1659 13.6588V7.24019C71.1659 1.28849 64.3354 -2.10889 59.5524 1.45786L55.0287 4.8354Z" fill="white"/>
<path d="M16.3031 25.7102V4.8354L35.6659 19.2916L55.0287 4.84532V25.7102L35.6659 40.1565L16.3031 25.7102Z" fill="white"/>
<path d="M0.165894 7.25004L0.165894 13.6687L16.3031 25.7102V4.8354L11.7895 1.46702C6.99636 -2.09897 0.165894 1.29834 0.165894 7.25004Z" fill="white"/>
</svg>
