<svg width="54" height="53" viewBox="0 0 54 53" fill="none" xmlns="http://www.w3.org/2000/svg">
<path d="M26.6659 31.1611C29.2331 31.1611 31.3344 29.0701 31.3344 26.4926C31.3344 25.4781 31.0032 24.5361 30.4546 23.7701C29.6057 22.6004 28.229 21.824 26.6762 21.824C25.1235 21.824 23.7468 22.59 22.8979 23.7701C22.3493 24.5361 22.018 25.4781 22.018 26.4926C22.0077 29.0701 24.0987 31.1611 26.6659 31.1611Z" fill="white"/>
<path d="M36.8518 20.7992V16.3066H36.2721L32.3593 16.317L32.38 20.8096L36.8518 20.7992Z" fill="white"/>
<path d="M33.912 26.5029C33.912 30.4986 30.6616 33.749 26.6659 33.749C22.6702 33.749 19.4198 30.4986 19.4198 26.5029C19.4198 25.5402 19.6165 24.6189 19.9581 23.7805H16.0038V34.6289C16.0038 36.0264 17.1425 37.165 18.5399 37.165H34.7919C36.1893 37.165 37.328 36.0264 37.328 34.6289V23.7805H33.3737C33.7257 24.6189 33.912 25.5402 33.912 26.5029Z" fill="white"/>
<path d="M26.6659 0.00292969C12.0288 0.00292969 0.165894 11.8658 0.165894 26.5029C0.165894 41.14 12.0288 53.0029 26.6659 53.0029C41.303 53.0029 53.1659 41.14 53.1659 26.5029C53.1659 11.8658 41.303 0.00292969 26.6659 0.00292969ZM39.9159 34.6289C39.9159 37.4549 37.6178 39.7529 34.7919 39.7529H18.5399C15.7139 39.7529 13.4159 37.4549 13.4159 34.6289V18.3666C13.4159 15.5406 15.7139 13.2426 18.5399 13.2426H34.7919C37.6178 13.2426 39.9159 15.5406 39.9159 18.3666V34.6289Z" fill="white"/>
</svg>
