<svg width="54" height="53" viewBox="0 0 54 53" fill="none" xmlns="http://www.w3.org/2000/svg">
<path d="M23.136 31.6064L31.8106 26.5134L23.136 21.4204V31.6064Z" fill="white"/>
<path d="M26.6659 0.00292969C12.0288 0.00292969 0.165894 11.8658 0.165894 26.5029C0.165894 41.14 12.0288 53.0029 26.6659 53.0029C41.303 53.0029 53.1659 41.14 53.1659 26.5029C53.1659 11.8658 41.303 0.00292969 26.6659 0.00292969ZM39.9159 31.2439C39.9159 35.809 35.3509 35.809 35.3509 35.809H17.9809C13.4159 35.809 13.4159 31.2439 13.4159 31.2439V21.7723C13.4159 17.2072 17.9809 17.2072 17.9809 17.2072H35.3509C39.9159 17.2072 39.9159 21.7723 39.9159 21.7723V31.2439Z" fill="white"/>
</svg>
