<svg width="33" height="16" viewBox="0 0 33 16" fill="none" xmlns="http://www.w3.org/2000/svg">
<path d="M8.11665 12.7346C8.11665 12.7346 9.60934 14.9935 11.0656 14.9935C12.5811 14.9972 13.1735 14.1312 14.038 13.0595L18.2349 6.1891C18.469 5.83335 18.7792 5.53679 19.1421 5.32194C19.505 5.10708 19.9109 4.97957 20.3291 4.94908H26.7463C27.9896 4.94908 27.8795 7.30369 26.634 7.30369H21.2902C20.8815 7.31548 20.4839 7.44247 20.1412 7.67066C19.7986 7.89884 19.5242 8.21937 19.3483 8.59689L17.7745 11.237H22.4154C23.8101 11.237 24.7214 15 26.6469 15H30.6707L28.3703 11.1803C29.4079 10.9115 30.3283 10.2965 30.9857 9.43258C31.6431 8.56865 32.0001 7.50518 32 6.41046C32 2.64974 29.398 1.0191 28.0533 1.0191H17.5873C17.0976 1.05974 16.6256 1.22464 16.214 1.49888C15.8024 1.77311 15.4641 2.14802 15.2299 2.58966L11.1903 9.42476L7.17941 2.58674C7.17941 2.58674 6.16055 1.00155 4.79933 1.00155L1 1L8.11665 12.7346Z" stroke="#FF0000" stroke-width="2" stroke-linecap="round" stroke-linejoin="round"/>
</svg>
